<!DOCTYPE svg PUBLIC "-//W3C//DTD SVG 20010904//EN" "http://www.w3.org/TR/2001/REC-SVG-20010904/DTD/svg10.dtd">
<svg version="1.0" xmlns="http://www.w3.org/2000/svg" width="512px" height="512px" viewBox="0 0 5120 5120" preserveAspectRatio="xMidYMid meet">
<g id="layer101" fill="#000000" stroke="none">
</g>
<g id="layer102" fill="#002963" stroke="none">
<path d="M2320 4225 c-124 -73 -450 -265 -724 -427 -275 -161 -500 -297 -500 -303 -1 -6 100 -11 277 -13 l278 -3 455 256 c250 141 461 255 467 252 17 -7 1020 -597 1030 -606 6 -6 -24 -66 -158 -306 -12 -22 -106 -193 -210 -380 -103 -187 -206 -374 -230 -415 -37 -65 -108 -193 -228 -410 -16 -30 -52 -94 -79 -141 -26 -48 -48 -94 -48 -102 0 -22 152 -287 164 -287 6 1 83 123 171 273 87 150 194 331 236 402 764 1300 846 1441 839 1448 -6 6 -207 126 -1274 761 -126 75 -232 136 -235 135 -3 0 -107 -61 -231 -134z"/>
<path d="M972 2458 l3 -872 615 -353 c338 -194 662 -380 719 -413 57 -34 106 -60 110 -58 4 2 -54 114 -128 250 l-136 247 -85 49 c-47 28 -240 141 -430 252 -190 111 -349 206 -354 210 -9 9 -9 1237 0 1252 3 4 459 8 1013 8 l1007 0 81 143 c44 78 79 145 76 150 -2 4 -564 7 -1249 7 l-1244 0 2 -872z"/>
<path d="M4098 3204 c-25 -44 -92 -162 -149 -264 l-104 -185 -5 -495 -5 -495 -90 -51 c-238 -135 -991 -554 -1000 -556 -5 -2 -84 130 -175 292 -92 162 -220 390 -285 505 -65 116 -208 370 -318 565 -110 195 -203 358 -206 363 -4 4 -85 6 -179 5 l-171 -3 43 -75 c23 -41 98 -174 166 -295 277 -493 333 -592 487 -865 384 -682 505 -896 514 -905 7 -7 28 0 62 19 432 241 1329 742 1402 784 l70 40 3 832 c1 457 -2 838 -6 847 -7 11 -20 -4 -54 -63z"/>
</g>


</svg>